<svg xmlns="http://www.w3.org/2000/svg" width="860" height="420" viewBox="0 0 860 420">
<title>GitHub Dark Colorblind for Otty</title>
<defs><clipPath id="w"><rect width="860" height="420" rx="12"/></clipPath></defs>
<g clip-path="url(#w)">
<rect width="860" height="420" fill="#0D1117"/>
<rect width="210" height="420" fill="#010409"/>
<rect x="210" width="650" height="40" fill="#0D1117"/>
<rect x="210" y="39" width="650" height="1" fill="#30363D"/>
<rect x="209" width="1" height="420" fill="#30363D"/>
<circle cx="20" cy="20" r="6" fill="#FF5F57"/>
<circle cx="40" cy="20" r="6" fill="#FEBC2E"/>
<circle cx="60" cy="20" r="6" fill="#28C840"/>
<text x="535.0" y="25" text-anchor="middle" font-family="-apple-system, BlinkMacSystemFont, Segoe UI, Helvetica, Arial, sans-serif" font-size="13" font-weight="500" fill="#8B949E">~/otty-github-theme</text>
<rect x="10" y="56" width="190" height="28" rx="6" fill="#6E768166"/>
<rect x="10" y="62" width="3" height="16" rx="1.5" fill="#F78166"/>
<text x="24" y="74.5" font-family="-apple-system, BlinkMacSystemFont, Segoe UI, Helvetica, Arial, sans-serif" font-size="13" font-weight="600" fill="#C9D1D9">otty-github-theme</text>
<text x="24" y="108.5" font-family="-apple-system, BlinkMacSystemFont, Segoe UI, Helvetica, Arial, sans-serif" font-size="13" font-weight="400" fill="#8B949E">primer/primitives</text>
<text x="24" y="142.5" font-family="-apple-system, BlinkMacSystemFont, Segoe UI, Helvetica, Arial, sans-serif" font-size="13" font-weight="400" fill="#8B949E">~/.config/otty</text>
<text x="234" y="74" font-family="ui-monospace, SFMono-Regular, Menlo, Consolas, monospace" font-size="14" xml:space="preserve"><tspan fill="#58A6FF">❯ </tspan><tspan fill="#C9D1D9">git </tspan><tspan fill="#C9D1D9">status</tspan></text>
<text x="234" y="96" font-family="ui-monospace, SFMono-Regular, Menlo, Consolas, monospace" font-size="14" xml:space="preserve"><tspan fill="#C9D1D9">On branch </tspan><tspan fill="#39C5CF">main</tspan></text>
<text x="234" y="118" font-family="ui-monospace, SFMono-Regular, Menlo, Consolas, monospace" font-size="14" xml:space="preserve"><tspan fill="#C9D1D9">Changes to be committed:</tspan></text>
<text x="234" y="140" font-family="ui-monospace, SFMono-Regular, Menlo, Consolas, monospace" font-size="14" xml:space="preserve"><tspan fill="#58A6FF">        new file:   </tspan><tspan fill="#58A6FF">themes/github-dark-default.ottytheme</tspan></text>
<text x="234" y="162" font-family="ui-monospace, SFMono-Regular, Menlo, Consolas, monospace" font-size="14" xml:space="preserve"><tspan fill="#EC8E2C">        modified:   </tspan><tspan fill="#EC8E2C">README.md</tspan></text>
<text x="234" y="206" font-family="ui-monospace, SFMono-Regular, Menlo, Consolas, monospace" font-size="14" xml:space="preserve"><tspan fill="#58A6FF">❯ </tspan><tspan fill="#C9D1D9">otty theme import </tspan><tspan fill="#58A6FF">github-dark.ottytheme</tspan></text>
<text x="234" y="228" font-family="ui-monospace, SFMono-Regular, Menlo, Consolas, monospace" font-size="14" xml:space="preserve"><tspan fill="#C9D1D9">Imported </tspan><tspan fill="#D29922">&quot;GitHub Dark Colorblind&quot;</tspan><tspan fill="#6E7681"> (otty, dark)</tspan></text>
<rect x="251" y="257" width="68" height="20" fill="#264F78"/>
<text x="234" y="272" font-family="ui-monospace, SFMono-Regular, Menlo, Consolas, monospace" font-size="14" xml:space="preserve"><tspan fill="#58A6FF">❯ </tspan><tspan fill="#C9D1D9">selected</tspan></text>
<rect x="326" y="258" width="9" height="18" fill="#58A6FF"/>
<rect x="234" y="332" width="30" height="30" rx="5" fill="#484F58" stroke="#30363D" stroke-width="1"/>
<rect x="270" y="332" width="30" height="30" rx="5" fill="#EC8E2C" stroke="#30363D" stroke-width="1"/>
<rect x="306" y="332" width="30" height="30" rx="5" fill="#58A6FF" stroke="#30363D" stroke-width="1"/>
<rect x="342" y="332" width="30" height="30" rx="5" fill="#D29922" stroke="#30363D" stroke-width="1"/>
<rect x="378" y="332" width="30" height="30" rx="5" fill="#58A6FF" stroke="#30363D" stroke-width="1"/>
<rect x="414" y="332" width="30" height="30" rx="5" fill="#BC8CFF" stroke="#30363D" stroke-width="1"/>
<rect x="450" y="332" width="30" height="30" rx="5" fill="#39C5CF" stroke="#30363D" stroke-width="1"/>
<rect x="486" y="332" width="30" height="30" rx="5" fill="#B1BAC4" stroke="#30363D" stroke-width="1"/>
<rect x="234" y="368" width="30" height="30" rx="5" fill="#6E7681" stroke="#30363D" stroke-width="1"/>
<rect x="270" y="368" width="30" height="30" rx="5" fill="#FDAC54" stroke="#30363D" stroke-width="1"/>
<rect x="306" y="368" width="30" height="30" rx="5" fill="#79C0FF" stroke="#30363D" stroke-width="1"/>
<rect x="342" y="368" width="30" height="30" rx="5" fill="#E3B341" stroke="#30363D" stroke-width="1"/>
<rect x="378" y="368" width="30" height="30" rx="5" fill="#79C0FF" stroke="#30363D" stroke-width="1"/>
<rect x="414" y="368" width="30" height="30" rx="5" fill="#D2A8FF" stroke="#30363D" stroke-width="1"/>
<rect x="450" y="368" width="30" height="30" rx="5" fill="#56D4DD" stroke="#30363D" stroke-width="1"/>
<rect x="486" y="368" width="30" height="30" rx="5" fill="#FFFFFF" stroke="#30363D" stroke-width="1"/>
</g>
<rect x="0.5" y="0.5" width="859" height="419" rx="11.5" fill="none" stroke="#30363D"/>
</svg>
